[img]http://img163.imageshack.us/img163/9047/ccrazy.jpg[/img]
[code]
Crazy Stupid Love 2011 720p TS XviD - MiSTERE

Video: Crazy.Stupid.Love.2011.iTALiAN.READNFO.720p.TELESYNC.x264-TNZ
Audio: iFLIX

Video
ID                               : 0
Format                           : MPEG-4 Visual
Format profile                   : Advanced Simple@L5
Format settings, BVOP            : 2
Format settings, QPel            : No
Format settings, GMC             : No warppoints
Format settings, Matrix          : Default (H.263)
Muxing mode                      : Packed bitstream
Codec ID                         : XVID
Codec ID/Hint                    : XviD
Duration                         : 1h 52mn
Bit rate                         : 3 070 Kbps
Width                            : 1 280 pixels
Height                           : 528 pixels
Display aspect ratio             : 2.40:1
Frame rate                       : 25.000 fps
Color space                      : YUV
Chroma subsampling               : 4:2:0
Bit depth                        : 8 bits
Scan type                        : Progressive
Compression mode                 : Lossy
Bits/(Pixel*Frame)               : 0.182
Stream size                      : 2.41 GiB (96%)
Writing library                  : XviD 64

Audio
ID                               : 1
Format                           : MPEG Audio
Format version                   : Version 1
Format profile                   : Layer 3
Mode                             : Joint stereo
Mode extension                   : MS Stereo
Codec ID                         : 55
Codec ID/Hint                    : MP3
Duration                         : 1h 52mn
Bit rate mode                    : Constant
Bit rate                         : 128 Kbps
Channel(s)                       : 2 channels
Sampling rate                    : 48.0 KHz
Compression mode                 : Lossy
Stream size                      : 103 MiB (4%)
Alignment                        : Split accross interleaves
Interleave, duration             : 40 ms (1.00 video frame)

Encoded video, synced audio 
[/code]
Screens:
[img]http://img207.imageshack.us/img207/9238/96370971.png[/img]
[img]http://img43.imageshack.us/img43/2764/26415052.png[/img]
[img]http://img43.imageshack.us/img43/4720/69359896.png[/img]
[img]http://img213.imageshack.us/img213/1650/77902843.png[/img]